<?xml version="1.0" encoding="UTF-8" standalone="no"?>
<svg
   xmlns:dc="http://purl.org/dc/elements/1.1/"
   xmlns:cc="http://creativecommons.org/ns#"
   xmlns:rdf="http://www.w3.org/1999/02/22-rdf-syntax-ns#"
   xmlns:svg="http://www.w3.org/2000/svg"
   xmlns="http://www.w3.org/2000/svg"
   id="calendario"
   version="1.1"
   viewBox="0 0 114.8736 91.498764">
  <defs
     id="defs2" />
  <metadata
     id="metadata5">
    <rdf:RDF>
      <cc:Work
         rdf:about="">
        <dc:format>image/svg+xml</dc:format>
        <dc:type
           rdf:resource="http://purl.org/dc/dcmitype/StillImage" />
        <dc:title></dc:title>
      </cc:Work>
    </rdf:RDF>
  </metadata>
  <g
     transform="translate(197.30372,-46.448887)"
     id="layer1">
    <path
       id="rect10"
       transform="scale(0.26458333)"
       d="m -645.71289,179.01745 v 36.64466 h -65.71484 c -18.99428,0 -34.28711,15.29086 -34.28711,34.28516 V 487.0918 c 0,18.99428 15.29283,34.28515 34.28711,34.28515 h 365.5957 c 18.99429,0 34.28515,-15.29087 34.28515,-34.28515 V 249.94727 c 0,-18.9943 -15.29086,-34.28516 -34.28515,-34.28516 h -65.71485 v -36.64466 c -12.83185,-4.5832 -26.158,-4.64886 -40,0 v 36.64466 h -154.16601 v -36.64466 c -13.33022,-4.66406 -26.66391,-4.5693 -40,0 z m -32.48047,97.68763 h 49.5957 v 39.91797 h -49.5957 z m 124.76367,0 h 49.59766 v 39.91797 h -49.59766 z m 124.76563,0 h 49.5957 v 39.91797 h -49.5957 z m -249.5293,75.85547 h 49.5957 v 39.91797 h -49.5957 z m 124.76367,0 h 49.59766 v 39.91797 h -49.59766 z m 124.76563,0 h 49.5957 v 39.91797 h -49.5957 z m -249.5293,75.85547 h 49.5957 v 39.91796 h -49.5957 z m 124.76367,0 h 49.59766 v 39.91796 h -49.59766 z"
       style="opacity:1;fill-opacity:1;fill-rule:nonzero;stroke:none;stroke-width:20.40944862;stroke-linecap:round;stroke-linejoin:round;stroke-miterlimit:4;stroke-dasharray:none;stroke-opacity:1" />
    <g
       id="g881"
       transform="translate(-10.825654,4.2230729)" />
  </g>
</svg>
