<?xml version="1.0" encoding="UTF-8" standalone="no"?>
<svg
   xmlns:dc="http://purl.org/dc/elements/1.1/"
   xmlns:cc="http://creativecommons.org/ns#"
   xmlns:rdf="http://www.w3.org/1999/02/22-rdf-syntax-ns#"
   xmlns:svg="http://www.w3.org/2000/svg"
   xmlns="http://www.w3.org/2000/svg"
   viewBox="0 0 705.56451 409.74427"
   version="1.1"
   id="logotipo-texto-azul"
   class="logo__item">
  <defs
     id="defs32" />
  <metadata
     id="metadata35">
    <rdf:RDF>
      <cc:Work
         rdf:about="">
        <dc:format>image/svg+xml</dc:format>
        <dc:type
           rdf:resource="http://purl.org/dc/dcmitype/StillImage" />
        <dc:title></dc:title>
      </cc:Work>
    </rdf:RDF>
  </metadata>
  <g
     style="stroke-width:2.01661062"
     id="layer1-3"
     transform="matrix(1.874198,0,0,1.874198,255.02276,-86.821958)">
    <g
       id="g22"
       transform="matrix(0.26458333,0,0,0.26458333,254.30191,-23.063267)"
       style="fill:#00125a;fill-opacity:1;stroke-width:2.01661062">
      <path
         id="path115"
         transform="matrix(3.1397504,0,0,3.1397504,-1966.9614,247.01551)"
         d="m 311.19141,4.8535156 18.8125,24.4003904 h 79.65234 V 4.8535156 Z m 123.17773,0 V 30.457031 164.60352 l 18.87891,24.48242 V 4.8535156 Z M 307.5918,9.7949219 V 193.70703 h 18.32422 V 167.88477 149.23438 33.558594 Z M 350.62695,169.08789 v 24.61914 h 98.77539 l -18.98242,-24.61914 z"
         style="opacity:1;fill:#00125a;fill-opacity:1;fill-rule:nonzero;stroke:none;stroke-width:6.42283726;stroke-linecap:round;stroke-miterlimit:4;stroke-dasharray:none;stroke-opacity:1" />
      <path
         transform="matrix(3.1397504,0,0,3.1397504,-1966.9614,247.01551)"
         id="rect833"
         d="M 292.6875,4.8535156 V 193.70703 h 5.87305 V 4.8535156 Z"
         style="opacity:1;fill:#757381;fill-opacity:1;fill-rule:nonzero;stroke:none;stroke-width:6.42283726;stroke-linecap:round;stroke-miterlimit:4;stroke-dasharray:none;stroke-opacity:1" />
      <path
         style="font-style:normal;font-variant:normal;font-weight:normal;font-stretch:normal;font-size:148.81263733px;line-height:1.25;font-family:'Hemi Head';-inkscape-font-specification:'Hemi Head';letter-spacing:13.72000027px;word-spacing:0px;fill:#00125a;fill-opacity:1;stroke:none;stroke-width:2.01661062"
         d="m -3606.6016,1318.9883 c -10.754,0 -18.8936,2.6894 -24.416,8.0664 -5.5223,5.377 -8.2832,11.915 -8.2832,19.6172 0,3.8269 0.9924,7.8242 2.9785,11.9902 1.9861,4.1175 4.6994,7.4123 8.1387,9.8828 3.4394,2.4705 9.616,5.2791 18.5293,8.4278 8.9133,3.1487 14.3873,5.6674 16.4219,7.5566 3.3424,3.0518 5.0136,6.3704 5.0136,9.9551 0,2.9065 -0.9685,5.6435 -2.9062,8.2109 -1.8892,2.519 -4.4079,4.3351 -7.5566,5.4492 -3.1487,1.1142 -6.0307,1.6719 -8.6465,1.6719 -2.955,0 -5.692,-0.4366 -8.211,-1.3086 -2.5189,-0.9204 -4.7002,-2.1311 -6.541,-3.6328 -1.7923,-1.5501 -3.4397,-3.5607 -4.9414,-6.0312 -0.6782,-1.1142 -2.1787,-4.3594 -4.5039,-9.7364 l -6.6855,0.1446 v 2.7617 c 0,1.3079 0.05,3.5368 0.1464,6.6855 0.2423,6.1037 0.3633,9.4222 0.3633,9.9551 v 0.7988 c 0.1938,0.7266 0.4102,1.1871 0.6524,1.3809 0.6297,0.5328 2.156,1.1382 4.5781,1.8164 l 8.7207,2.543 c 4.6988,0.9688 8.7439,1.4531 12.1348,1.4531 5.1348,0 9.3247,-0.4367 12.5703,-1.3086 3.294,-0.872 6.4657,-2.2752 9.5176,-4.2129 3.0518,-1.9861 5.3045,-3.7069 6.7578,-5.1602 2.0345,-2.0829 3.5132,-4.2861 4.4336,-6.6113 1.6954,-4.4082 2.5429,-8.8898 2.5429,-13.4433 0,-4.166 -0.5577,-7.6295 -1.6718,-10.3907 -1.0658,-2.8096 -3.0525,-5.7153 -5.959,-8.7187 -2.1799,-2.2768 -5.3755,-4.3846 -9.5899,-6.3223 -4.166,-1.9376 -7.7267,-3.3429 -10.6816,-4.2148 -8.8164,-2.6159 -14.5822,-5.3529 -17.2949,-8.211 -2.7612,-2.858 -4.1407,-5.8372 -4.1407,-8.9375 0,-3.6815 1.3795,-6.758 4.1407,-9.2285 2.8096,-2.5189 6.5886,-3.7773 11.3359,-3.7773 4.9895,0 9.3243,1.9371 13.0059,5.8125 2.1314,2.2767 4.2631,6.6135 6.3945,13.0078 l 0.873,0.1445 5.2305,0.3633 0.7266,-0.2187 c 0.1937,-1.0173 0.291,-1.9621 0.291,-2.834 0,-2.7612 -0.2898,-6.6355 -0.8711,-11.625 -0.3875,-3.3425 -0.8242,-5.8374 -1.3086,-7.4844 -4.5535,-1.5501 -8.2115,-2.5683 -10.9727,-3.0527 -4.5535,-0.8236 -7.9912,-1.2344 -10.3164,-1.2344 z m 740.0469,0 c -10.754,0 -18.8937,2.6894 -24.416,8.0664 -5.5223,5.377 -8.2832,11.915 -8.2832,19.6172 0,3.8269 0.9944,7.8242 2.9805,11.9902 1.9861,4.1175 4.6973,7.4123 8.1367,9.8828 3.4393,2.4705 9.616,5.2791 18.5293,8.4278 8.9132,3.1487 14.3873,5.6674 16.4219,7.5566 3.3424,3.0518 5.0136,6.3704 5.0136,9.9551 0,2.9065 -0.9686,5.6435 -2.9062,8.2109 -1.8892,2.519 -4.408,4.3351 -7.5567,5.4492 -3.1487,1.1142 -6.0306,1.6719 -8.6464,1.6719 -2.955,0 -5.692,-0.4366 -8.211,-1.3086 -2.519,-0.9204 -4.7002,-2.1311 -6.541,-3.6328 -1.7923,-1.5501 -3.4378,-3.5607 -4.9395,-6.0312 -0.6781,-1.1142 -2.1806,-4.3594 -4.5058,-9.7364 l -6.6856,0.1446 v 2.7617 c 0,1.3079 0.05,3.5368 0.1465,6.6855 0.2422,6.1037 0.3633,9.4222 0.3633,9.9551 v 0.7988 c 0.1938,0.7266 0.4101,1.1871 0.6523,1.3809 0.6298,0.5328 2.1561,1.1382 4.5782,1.8164 l 8.7207,2.543 c 4.6988,0.9688 8.7438,1.4531 12.1347,1.4531 5.1349,0 9.3248,-0.4367 12.5704,-1.3086 3.294,-0.872 6.4657,-2.2752 9.5175,-4.2129 3.0519,-1.9861 5.3046,-3.7069 6.7578,-5.1602 2.0346,-2.0829 3.5132,-4.2861 4.4336,-6.6113 1.6955,-4.4082 2.543,-8.8898 2.543,-13.4433 0,-4.166 -0.5577,-7.6295 -1.6719,-10.3907 -1.0657,-2.8096 -3.0525,-5.7153 -5.959,-8.7187 -2.1798,-2.2768 -5.3754,-4.3846 -9.5898,-6.3223 -4.166,-1.9376 -7.7267,-3.3429 -10.6816,-4.2148 -8.8164,-2.6159 -14.5822,-5.3529 -17.295,-8.211 -2.7611,-2.858 -4.1406,-5.8372 -4.1406,-8.9375 0,-3.6815 1.3795,-6.758 4.1406,-9.2285 2.8097,-2.5189 6.5887,-3.7773 11.336,-3.7773 4.9895,0 9.3243,1.9371 13.0058,5.8125 2.1315,2.2767 4.2631,6.6135 6.3946,13.0078 l 0.873,0.1445 5.2305,0.3633 0.7265,-0.2187 c 0.1938,-1.0173 0.2911,-1.9621 0.2911,-2.834 0,-2.7612 -0.2898,-6.6355 -0.8711,-11.625 -0.3876,-3.3425 -0.8242,-5.8374 -1.3086,-7.4844 -4.5535,-1.5501 -8.2115,-2.5683 -10.9727,-3.0527 -4.5535,-0.8236 -7.9912,-1.2344 -10.3164,-1.2344 z m -216.291,0.072 c -14.7747,0 -26.9336,4.7 -36.4766,14.0977 -9.4945,9.3977 -14.2402,21.3144 -14.2402,35.75 0,5.9583 0.7503,11.3351 2.252,16.1309 1.5501,4.7957 3.9001,9.2277 7.0488,13.2968 3.1487,4.0691 7.4835,7.8482 13.0058,11.336 3.7785,2.4221 8.3078,4.1886 13.5879,5.3027 5.3286,1.1142 10.9714,1.6719 16.9297,1.6719 7.7991,0 14.3628,-0.5577 19.6914,-1.6719 5.377,-1.1626 9.5431,-2.8814 12.4981,-5.1582 l 1.0176,-3.416 0.6542,-2.1797 c 0.9689,-5.377 1.5266,-8.4534 1.6719,-9.2285 0.436,-1.9861 0.7496,-3.8995 0.9434,-5.7402 -2.9065,0.048 -5.2546,0.2429 -7.0469,0.582 -4.5535,6.588 -9.325,11.554 -14.3144,14.8965 -4.9411,3.294 -10.0777,4.9414 -15.4063,4.9414 -4.8442,0 -9.3973,-1.0916 -13.6602,-3.2715 -3.294,-1.5986 -5.9576,-3.7541 -7.9921,-6.4668 -2.6643,-3.5847 -4.8694,-8.2112 -6.6133,-13.8789 -1.0657,-3.4878 -1.5977,-9.3489 -1.5977,-17.584 0,-14.1934 3.1241,-25.2626 9.3731,-33.207 4.6019,-5.8615 10.6575,-8.791 18.166,-8.791 6.1036,0 11.6253,1.4528 16.5664,4.3593 4.941,2.8581 9.7363,7.5819 14.3867,14.17 h 6.6133 c -0.048,-3.4878 -0.5089,-6.7826 -1.3809,-9.8829 -1.9376,-6.8302 -3.2218,-10.9725 -3.8515,-12.4257 -4.602,-1.2111 -9.566,-2.1062 -14.8946,-2.6875 -5.2801,-0.6298 -10.9248,-0.9454 -16.9316,-0.9454 z m -1011.5469,0.2188 c -5.9099,0 -11.2629,0.6292 -16.0586,1.8887 -4.7957,1.211 -9.4937,3.2454 -14.0957,6.1035 -4.6019,2.8096 -8.4286,6.0309 -11.4804,9.664 -3.0519,3.6332 -5.4257,7.6305 -7.1211,11.9903 -2.3252,6.0552 -3.4883,12.085 -3.4883,18.0918 0,4.9895 0.5101,9.3501 1.5273,13.0801 1.5502,5.8129 2.9296,9.8341 4.1406,12.0625 2.2284,3.9722 4.9416,7.5309 8.1387,10.6796 3.1972,3.1487 7.4347,6.2252 12.7149,9.2286 0.4359,0.1937 2.4961,0.8963 6.1777,2.1074 2.0345,0.6782 4.4084,1.2121 7.1211,1.5996 3.5847,0.5328 7.4352,0.7988 11.5527,0.7988 16.6155,0 29.5742,-4.8925 38.875,-14.6777 9.3493,-9.7852 14.0235,-21.5332 14.0235,-35.2422 0,-9.2039 -2.7609,-17.9966 -8.2832,-26.377 -4.2629,-6.4427 -10.1002,-11.5516 -17.5118,-15.33 -7.4115,-3.7785 -16.1565,-5.668 -26.2324,-5.668 z m 221.8848,0.072 -17.2207,45.1953 -14.6777,38.4394 c -1.1626,2.2283 -2.1551,3.6336 -2.9786,4.2149 -0.775,0.5813 -3.0278,1.2343 -6.7578,1.9609 -2.3252,0.436 -3.9487,0.7992 -4.8691,1.0899 l -0.1445,4.9414 h 1.3085 c 3.2456,0 6.6595,-0.2898 10.2442,-0.8711 l 2.9785,-0.5098 c 11.3353,0.8235 18.5064,1.2363 21.5098,1.2363 0.097,-0.5813 0.1445,-1.139 0.1445,-1.6718 0,-0.6782 -0.024,-1.889 -0.072,-3.6329 -3.0033,-0.4359 -4.7242,-0.7039 -5.1601,-0.8007 -3.1487,-0.3876 -5.2784,-1.0406 -6.3926,-1.961 -0.6782,-0.5328 -1.0176,-1.4299 -1.0176,-2.6894 0,-0.9204 0.4605,-2.6631 1.3809,-5.2305 3.1971,-9.0586 5.303,-14.751 6.3203,-17.0762 l 27.7578,0.072 5.7402,14.2422 2.9063,7.1211 c 0.2422,0.6782 0.3633,1.3331 0.3633,1.9629 0,0.6297 -0.2422,1.1855 -0.7266,1.6699 -0.3875,0.3391 -1.7928,0.8234 -4.2148,1.4531 l -8.0645,1.7442 c -0.1453,1.5501 -0.2187,3.1736 -0.2187,4.8691 l 3.5605,-0.1465 12.3535,-0.6523 c 1.6955,-0.097 4.4563,-0.1465 8.2832,-0.1465 3.4394,0 7.3137,0.1707 11.625,0.5097 4.3113,0.3391 8.2591,0.5079 11.8438,0.5079 0.048,-0.7267 0.074,-1.2606 0.074,-1.5996 0,-0.7751 -0.123,-1.9601 -0.3652,-3.5586 -2.2768,-0.872 -4.4065,-1.4297 -6.3926,-1.6719 -1.9377,-0.2422 -3.3429,-0.7265 -4.2149,-1.4531 -0.4844,-0.3391 -1.2108,-1.526 -2.1796,-3.5606 -1.7924,-3.73 -3.1242,-6.8302 -3.9961,-9.3008 -1.6955,-4.5535 -3.0293,-7.9693 -3.9981,-10.2461 -1.647,-3.7784 -3.608,-8.6471 -5.8848,-14.6054 -2.2767,-6.0068 -4.845,-12.1815 -7.7031,-18.5274 l -12.6426,-29.9375 -0.6543,-1.3086 h -3.2695 c -1.4532,0 -2.9795,-0.024 -4.5781,-0.072 z m -336.75,0.9453 c -0.2422,0 -1.1393,0.071 -2.6895,0.2168 -5.2317,0.4359 -9.5188,0.6543 -12.8613,0.6543 l -7.7012,-0.1446 -10.3906,0.072 c -7.2662,-0.3875 -11.4819,-0.582 -12.6445,-0.582 -0.4844,0 -0.943,0.121 -1.3789,0.3633 -0.049,0.775 -0.074,1.3566 -0.074,1.7441 0,0.6782 0.05,1.6468 0.1464,2.9062 0.6782,0.5813 1.8651,1.0914 3.5606,1.5274 0.9688,0.1938 2.0585,0.5312 3.2695,1.0156 1.5986,0.6298 2.5195,0.993 2.7617,1.0899 2.4706,0.775 3.85,1.43 4.1407,1.9628 0.3391,0.4845 0.6784,3.2691 1.0175,8.3555 v 1.0176 l -0.072,7.3398 -0.291,16.2032 0.1445,7.5566 -0.072,7.1211 v 6.0312 l -0.4355,9.4454 0.1445,9.3007 c 0,0.7751 -0.1449,1.7437 -0.4355,2.9063 -0.6298,0.5813 -1.8882,0.8969 -3.7774,0.9453 -0.4844,0 -2.108,0.2183 -4.8691,0.6543 -2.7128,0.3875 -4.8206,0.7984 -6.3223,1.2344 -0.3391,0.9204 -0.5078,2.399 -0.5078,4.4336 0,0.3875 0.048,0.848 0.1445,1.3808 0.6298,0.048 1.0902,0.072 1.3809,0.072 h 1.0898 c 4.9895,-0.3875 10.3425,-0.6535 16.0586,-0.7988 l 14.8242,-0.4375 c 7.9445,0 16.0583,0.1468 24.3418,0.4375 8.2836,0.2906 12.9082,0.4593 13.877,0.5078 5.3286,0.3875 8.2125,0.582 8.6484,0.582 l 3.7774,-0.074 h 2.6894 c 0.2907,0 0.9933,-0.095 2.1075,-0.2891 0.339,-0.775 0.6765,-2.9067 1.0156,-6.3945 0.8719,-8.7195 1.3086,-14.8247 1.3086,-18.3125 v -2.0332 c -1.4533,-0.1938 -2.7613,-0.291 -3.9239,-0.291 h -2.3242 c -1.3079,3.9237 -2.4948,6.7342 -3.5605,8.4297 -1.0173,1.6954 -2.3491,3.2694 -3.9961,4.7226 -1.0173,1.3564 -3.1986,2.712 -6.541,4.0684 -4.4567,1.7923 -10.5837,2.6894 -18.3828,2.6894 l -4.5782,-0.1465 -4.2871,0.072 -6.9023,-0.289 c -0.4844,-0.436 -0.7266,-1.3808 -0.7266,-2.834 l 0.291,-34.4434 c 0,-1.9377 0.024,-3.5116 0.072,-4.7226 0.1453,-3.2456 0.2168,-6.1276 0.2168,-8.6465 0,-2.1799 -0.072,-4.7224 -0.2168,-7.6289 -0.097,-1.8408 -0.1465,-3.1488 -0.1465,-3.9239 0,-0.6297 0.026,-1.2608 0.074,-1.8906 0.1454,-2.4221 0.2168,-3.7539 0.2168,-3.9961 l -0.072,-0.7988 v -1.3086 l 0.2187,-4.5762 0.072,-2.0351 c 0.097,-0.2422 0.2418,-0.534 0.4355,-0.8731 0.5813,-0.2906 0.9922,-0.4832 1.2344,-0.5801 l 9.0117,-2.1074 c 1.8408,-0.2422 2.9066,-0.5339 3.1973,-0.873 0.5328,-0.5813 0.7988,-1.4288 0.7988,-2.543 0,-1.4048 -0.1945,-2.3734 -0.582,-2.9062 -0.2907,-0.3876 -0.7988,-0.5801 -1.5254,-0.5801 z m 455.541,0 c -0.2422,0 -1.1393,0.071 -2.6894,0.2168 -5.2317,0.4359 -9.5189,0.6543 -12.8614,0.6543 l -7.7012,-0.1446 -10.3906,0.072 c -7.2662,-0.3875 -11.4819,-0.582 -12.6445,-0.582 -0.4844,0 -0.9449,0.121 -1.3809,0.3633 -0.048,0.775 -0.072,1.3566 -0.072,1.7441 0,0.6782 0.05,1.6468 0.1465,2.9062 0.6781,0.5813 1.865,1.0914 3.5605,1.5274 0.9688,0.1938 2.0585,0.5312 3.2695,1.0156 1.5986,0.6298 2.5176,0.993 2.7598,1.0899 2.4705,0.775 3.8519,1.43 4.1426,1.9628 0.3391,0.4845 0.6785,3.2691 1.0176,8.3555 v 1.0176 l -0.072,7.3398 -0.291,16.2032 0.1445,7.5566 -0.072,7.1211 v 6.0312 l -0.4355,9.4454 0.1445,9.3007 c 0,0.7751 -0.1449,1.7437 -0.4355,2.9063 -0.6298,0.5813 -1.8901,0.8969 -3.7793,0.9453 -0.4844,0 -2.106,0.2183 -4.8672,0.6543 -2.7127,0.3875 -4.8206,0.7984 -6.3223,1.2344 -0.3391,0.9204 -0.5078,2.399 -0.5078,4.4336 0,0.3875 0.048,0.848 0.1445,1.3808 0.6298,0.048 1.0903,0.072 1.3809,0.072 h 1.0898 c 4.9895,-0.3875 10.3425,-0.6535 16.0586,-0.7988 l 14.8223,-0.4375 c 7.9444,0 16.0583,0.1468 24.3418,0.4375 8.2835,0.2906 12.9101,0.4593 13.8789,0.5078 5.3286,0.3875 8.2105,0.582 8.6465,0.582 l 3.7793,-0.074 h 2.6894 c 0.2907,0 0.9914,-0.095 2.1055,-0.2891 0.3391,-0.775 0.6785,-2.9067 1.0176,-6.3945 0.8719,-8.7195 1.3086,-14.8247 1.3086,-18.3125 v -2.0332 c -1.4533,-0.1938 -2.7612,-0.291 -3.9238,-0.291 h -2.3262 c -1.3079,3.9237 -2.4948,6.7342 -3.5606,8.4297 -1.0172,1.6954 -2.349,3.2694 -3.9961,4.7226 -1.0172,1.3564 -3.1965,2.712 -6.539,4.0684 -4.4566,1.7923 -10.5837,2.6894 -18.3828,2.6894 l -4.5782,-0.1465 -4.2871,0.072 -6.9023,-0.289 c -0.4844,-0.436 -0.7266,-1.3808 -0.7266,-2.834 l 0.2891,-34.4434 c 0,-1.9377 0.026,-3.5116 0.074,-4.7226 0.1453,-3.2456 0.2168,-6.1276 0.2168,-8.6465 0,-2.1799 -0.072,-4.7224 -0.2168,-7.6289 -0.097,-1.8408 -0.1465,-3.1488 -0.1465,-3.9239 0,-0.6297 0.024,-1.2608 0.072,-1.8906 0.1453,-2.4221 0.2187,-3.7539 0.2187,-3.9961 l -0.072,-0.7988 v -1.3086 l 0.2168,-4.5762 0.074,-2.0351 c 0.097,-0.2422 0.2418,-0.534 0.4355,-0.8731 0.5813,-0.2906 0.9922,-0.4832 1.2344,-0.5801 l 9.0098,-2.1074 c 1.8408,-0.2422 2.9066,-0.5339 3.1972,-0.873 0.5329,-0.5813 0.8008,-1.4288 0.8008,-2.543 0,-1.4048 -0.1945,-2.3734 -0.582,-2.9062 -0.2907,-0.3876 -0.7988,-0.5801 -1.5254,-0.5801 z m 372.8496,0.072 c -6.2974,0 -12.2796,0.2898 -17.9473,0.8711 l -9.082,0.4356 -3.8515,0.2187 c -0.2907,0 -2.1802,-0.1449 -5.668,-0.4355 -3.3909,0.048 -5.6437,0.072 -6.7578,0.072 -2.0346,0 -4.2635,0.1945 -6.6856,0.5821 l -0.289,0.7988 0.1445,4.3594 c 1.3079,0.2422 3.9239,0.4843 7.8477,0.7265 l 4.2871,0.8731 c 0.2422,2.8096 0.3632,9.2523 0.3632,19.3281 0,4.602 -0.073,9.5421 -0.2187,14.8223 l -0.1445,3.9238 0.1445,6.7578 -0.2891,8.7188 0.072,16.2051 c 0,3.9722 -0.05,6.2964 -0.1465,6.9746 -0.048,0.4359 -0.1933,1.1386 -0.4355,2.1074 -1.9861,0.7266 -4.2151,1.2585 -6.6856,1.5976 -2.4705,0.2907 -4.3343,0.7769 -5.5937,1.4551 -0.1454,0.9689 -0.2188,1.7191 -0.2188,2.252 0,0.3391 0.05,1.1132 0.1465,2.3242 h 3.123 c 2.519,0 5.3056,-0.1687 8.3575,-0.5078 l 10.0273,-0.6543 c 0.5329,-0.048 1.428,-0.072 2.6875,-0.072 1.9377,0 8.1144,0.4605 18.5293,1.3809 l 2.9785,-0.1465 c 0.2422,0 0.8238,0.026 1.7442,0.074 0.1937,-1.211 0.291,-3.0033 0.291,-5.3769 -2.7127,-1.0658 -5.9579,-1.9867 -9.7363,-2.7618 -2.1799,-0.4359 -3.9484,-1.0651 -5.3047,-1.8886 l 0.3632,-13.6621 -0.291,-16.1309 c 0,-1.9377 0.073,-3.6089 0.2188,-5.0137 2.3252,-0.097 3.9726,-0.1445 4.9414,-0.1445 3.5362,0 6.0311,0.5081 7.4844,1.5254 0.9688,0.6297 2.6638,3.3191 5.0859,8.0664 5.1833,10.2696 8.8412,17.7523 10.9727,22.4512 0.8235,1.7923 2.2525,4.5055 4.2871,8.1386 l 2.4687,4.7969 c 0.7751,-0.097 1.8171,-0.2179 3.125,-0.3633 2.8581,-0.3391 4.5531,-0.5097 5.086,-0.5097 l 7.2675,0.072 c 2.2768,0 4.1901,0.1211 5.7403,0.3633 h 2.9785 l 3.7793,0.5098 1.4531,-0.072 h 1.9609 c 0.049,-0.6782 0.072,-1.2359 0.072,-1.6719 0,-0.6297 -0.1449,-1.3561 -0.4355,-2.1797 -1.1626,-0.8235 -2.8338,-1.6471 -5.0137,-2.4707 -2.8096,-1.0172 -4.6753,-1.9382 -5.5957,-2.7617 -0.872,-0.8719 -2.7595,-3.8015 -5.666,-8.791 l -11.627,-18.8203 c -1.2595,-2.0346 -2.9068,-4.5056 -4.9414,-7.4121 -0.9688,-1.3564 -1.7429,-2.5433 -2.3242,-3.5606 6.5881,-2.0345 11.4568,-5.0375 14.6055,-9.0097 3.1971,-4.0207 4.7949,-8.4766 4.7949,-13.3692 0,-6.5396 -2.9316,-12.3292 -8.793,-17.3672 -5.8614,-5.0863 -13.757,-7.6289 -23.6875,-7.6289 z m 118.6445,0 c -0.1937,1.5986 -0.291,2.7121 -0.291,3.3418 0,0.4845 0.1469,1.2109 0.4375,2.1797 0.872,0.1938 1.8644,0.3645 2.9785,0.5098 1.1142,0.097 2.0113,0.2418 2.6895,0.4355 3.1971,0.2907 5.4975,0.9695 6.9023,2.0352 0.9204,0.6782 1.3809,1.4761 1.3809,2.3965 0,1.4048 -0.4366,3.2228 -1.3086,5.4512 -0.8235,2.2283 -1.8655,5.4972 -3.125,9.8085 -0.3875,1.308 -0.7011,2.3262 -0.9434,3.0528 l -2.0351,5.0859 -8.6465,23.9785 -4.2148,10.3184 c -1.308,-3.2456 -2.7608,-6.6852 -4.3594,-10.3184 l -8.2832,-18.748 c -3.9238,-8.4773 -6.7342,-15.1859 -8.4297,-20.127 l -2.3984,-6.3222 c -0.097,-0.5329 -0.1446,-1.0648 -0.1446,-1.5977 0,-0.7266 0.266,-1.3558 0.7989,-1.8887 1.0172,-0.9688 2.5912,-1.7448 4.7226,-2.3261 0.8235,-0.1938 3.6578,-0.6047 8.502,-1.2344 0,-0.436 -0.048,-2.4228 -0.1446,-5.959 h -5.3047 c -1.5985,0.2422 -3.9962,0.4844 -7.1933,0.7266 -4.4566,0.2906 -7.412,0.4355 -8.8652,0.4355 -9.6884,0 -17.5124,-0.3394 -23.4708,-1.0176 -0.5328,-0.048 -2.0572,-0.096 -4.5761,-0.1445 v 6.25 l 3.123,0.3633 c 3.1972,0.2906 5.305,0.7015 6.3223,1.2344 1.0173,0.5328 1.9382,1.4042 2.7617,2.6152 0.3875,0.6297 2.6879,5.4508 6.9024,14.4609 l 8.2109,19.836 13.7324,30.8086 c 3.5847,9.0101 5.6449,14.2659 6.1777,15.7675 0.5329,1.5017 1.0648,2.9804 1.5977,4.4336 1.647,0.097 2.9312,0.1446 3.8516,0.1446 0.4844,0 1.6951,-0.048 3.6328,-0.1446 1.0657,-2.6158 2.6635,-7.3396 4.7949,-14.1699 l 0.7285,-1.3066 c 2.0346,-5.0864 3.1719,-7.9941 3.4141,-8.7207 1.1626,-3.1003 2.2522,-5.9346 3.2695,-8.502 1.0657,-2.6158 2.0343,-5.0849 2.9063,-7.4101 l 9.3007,-24.0528 c 3.7785,-9.8821 6.5889,-16.4458 8.4297,-19.6914 0.6298,-1.1141 1.2828,-1.912 1.961,-2.3965 1.0657,-0.8235 4.7237,-2.3736 10.9726,-4.6504 0.049,-1.1626 0.072,-2.0358 0.072,-2.6171 v -2.3243 c -1.7924,0.049 -4.1166,0.2668 -6.9746,0.6543 -2.8581,0.3391 -6.2977,0.5078 -10.3184,0.5078 -3.9238,0 -7.9449,-0.1944 -12.0625,-0.582 -4.1175,-0.3875 -6.6124,-0.5801 -7.4844,-0.5801 z m 55.5743,0.2168 0.2187,6.3946 c 0.6298,0.097 1.4773,0.1703 2.543,0.2187 4.4566,0.2422 7.6779,0.8238 9.664,1.7442 0.2907,1.0657 0.4594,1.8398 0.5079,2.3242 l 0.072,3.125 0.3633,8.2832 -0.2168,3.9238 0.1445,9.6641 c 0,0.2906 -0.1687,5.2328 -0.5078,14.8242 l 0.072,3.9238 -0.1445,16.5664 0.072,8.5742 c 0,2.6643 -0.4366,4.7464 -1.3086,6.2481 -1.5501,0.8235 -3.9001,1.6234 -7.0488,2.3984 -2.2283,0.5329 -3.8261,0.9457 -4.7949,1.2364 v 5.2304 c 0.9688,-0.048 3.0509,-0.2171 6.248,-0.5078 4.8926,-0.4844 8.624,-0.7266 11.1914,-0.7266 l 12.8614,0.1446 c 5.7645,0.5813 8.9858,0.9207 9.664,1.0176 0.9204,0.1453 1.5496,0.2187 1.8887,0.2187 0.2422,0 1.1374,-0.05 2.6875,-0.1465 0.3391,-0.048 0.8253,-0.072 1.4551,-0.072 0.048,-1.1142 0.072,-1.9379 0.072,-2.4707 0,-0.9689 -0.097,-2.1796 -0.291,-3.6329 -2.5189,-0.339 -3.9956,-0.5335 -4.4316,-0.582 -2.4221,-0.2422 -5.1115,-0.6769 -8.0664,-1.3066 -0.1938,-0.7267 -0.291,-1.2844 -0.291,-1.6719 l 0.072,-2.7617 -0.1445,-14.5313 0.2187,-9.7383 -0.074,-19.1816 c 0,-4.4082 0.073,-10.7059 0.2188,-18.8926 -0.1453,-1.3079 -0.2188,-3.0029 -0.2188,-5.0859 0,-2.3736 0.1469,-4.1917 0.4375,-5.4512 1.5986,-0.6297 3.633,-1.2351 6.1035,-1.8164 2.519,-0.6297 4.746,-1.2827 6.6836,-1.9609 0.097,-1.3079 0.1465,-2.3738 0.1465,-3.1973 0,-0.6297 -0.024,-1.4058 -0.072,-2.3262 -0.9204,0.048 -3.1494,0.1953 -6.6856,0.4375 -6.2974,0.3876 -10.8763,0.5801 -13.7344,0.5801 -0.6297,0 -2.2275,-0.048 -4.7949,-0.1445 z m -812.6231,0.5098 c -4.7473,0 -7.776,0.1925 -9.084,0.5801 -0.048,0.9204 -0.096,1.623 -0.1445,2.1074 -0.048,0.436 -0.072,0.7992 -0.072,1.0898 0,0.3391 0.1211,0.7281 0.3633,1.1641 3.9238,0.8235 6.1269,1.3316 6.6113,1.5254 0.8236,0.2906 1.6711,0.8226 2.543,1.5977 2.7612,3.5846 4.2637,5.5714 4.5059,5.9589 l 6.6855,10.7539 14.2403,21.6543 c 0.339,0.5329 1.1866,1.6464 2.5429,3.3418 3.1972,3.9723 4.7969,7.4834 4.7969,10.5352 v 1.6719 c 0,0.4359 0.048,2.0099 0.1445,4.7226 0.097,2.6643 0.1465,7.7037 0.1465,15.1153 0,0.5328 -0.026,1.9123 -0.074,4.1406 -0.5329,0.2906 -1.0886,0.5328 -1.6699,0.7265 l -13.3711,2.7618 c -0.049,1.0657 -0.072,1.8655 -0.072,2.3984 0,0.5329 0.024,1.307 0.072,2.3242 l 5.0136,0.072 c 1.2111,0 3.0291,-0.1926 5.4512,-0.5801 1.5017,-0.2422 2.5914,-0.3394 3.2696,-0.291 h 6.0312 l 8.0645,-0.291 5.3769,0.3633 7.7754,0.6543 8.3555,0.1445 c 0.048,-0.9204 0.074,-1.5972 0.074,-2.0332 0.097,-0.7266 0.1445,-1.3082 0.1445,-1.7442 0,-0.7266 -0.1945,-1.2109 -0.582,-1.4531 -0.5329,-0.3391 -3.1231,-0.7519 -7.7734,-1.2363 -2.4221,-0.2907 -3.9723,-0.5328 -4.6504,-0.7266 -0.3391,-0.1453 -0.6071,-0.4113 -0.8008,-0.7988 l -0.2891,-18.6016 c 0,-1.3563 0.072,-2.6643 0.2168,-3.9238 v -1.7441 l 0.072,-6.3223 v -2.2519 c 0.2906,-1.0173 0.6538,-1.8648 1.0898,-2.543 1.647,-2.8096 5.305,-8.0654 10.9727,-15.7676 l 9.4472,-14.1699 c 3.6816,-6.2974 6.6112,-10.269 8.7911,-11.916 1.5016,-1.1142 4.2863,-2.0093 8.3554,-2.6875 l 0.9453,-0.291 0.072,-5.4512 c -0.6782,0.097 -1.3808,0.1703 -2.1074,0.2187 -2.4705,0.1454 -4.4792,0.3399 -6.0293,0.5821 l -1.2363,0.072 h -3.4883 c -0.7751,-0.1453 -1.3805,-0.2425 -1.8164,-0.291 l -14.8946,-0.7988 c 0.1938,2.9549 0.3387,4.7472 0.4356,5.3769 0.5813,0.1454 1.3315,0.2903 2.2519,0.4356 0.9204,0.1453 1.889,0.316 2.9063,0.5097 1.8408,0.097 2.859,0.1922 3.0527,0.2891 0.4844,0.097 1.0898,0.3886 1.8164,0.8731 0.1454,0.5813 0.2168,0.9921 0.2168,1.2343 0,0.6782 -0.4843,1.7202 -1.4531,3.125 l -6.1758,10.9727 -0.291,0.3633 c -3.9722,6.1036 -7.1935,10.754 -9.6641,13.9511 l -7.5566,10.6075 c -0.6782,-0.8235 -1.5019,-2.0104 -2.4707,-3.5606 -0.2422,-0.3875 -0.7741,-1.1854 -1.5977,-2.3965 -0.4359,-0.6297 -0.8726,-1.2847 -1.3086,-1.9629 -0.2906,-0.4359 -0.5566,-0.8706 -0.7988,-1.3066 -2.3736,-3.9722 -3.755,-6.225 -4.1426,-6.7578 -1.3563,-2.0346 -2.712,-4.2158 -4.0683,-6.541 -5.1833,-7.2663 -8.5733,-12.6193 -10.1719,-16.0586 l 0.1445,-0.9434 0.4356,-0.291 c 2.0345,-0.2906 3.6581,-0.5566 4.8691,-0.7988 l 3.2696,-0.5821 c 1.5501,-0.2422 2.8819,-0.5816 3.9961,-1.0175 l 0.072,-3.7774 c 0,-0.3391 -0.1211,-0.8234 -0.3633,-1.4531 l -0.58,-0.074 c -0.2422,0 -0.6312,0.05 -1.1641,0.1465 -3.73,0.5328 -7.5309,0.7988 -11.4063,0.7988 -3.5362,0 -8.3096,-0.2183 -14.3164,-0.6543 -3.2455,-0.2422 -5.2304,-0.4109 -5.957,-0.5078 l -0.7266,0.072 c -0.4844,0 -1.3319,-0.097 -2.5429,-0.291 z m 465.1914,0.072 -0.3633,5.8125 c 1.2111,0.1453 2.2769,0.2425 3.1973,0.291 2.5674,0.097 5.231,0.4363 7.9922,1.0176 0.9204,0.1937 1.6468,0.3386 2.1797,0.4355 0.9688,0.1453 1.6953,0.4847 2.1797,1.0176 0.097,0.7266 0.1465,1.2109 0.1465,1.4531 l 0.6523,9.0098 -0.072,8.2109 0.3633,11.627 -0.072,8.2109 0.2188,27.3926 -0.074,2.2539 c 0.048,1.9861 0.074,3.3894 0.074,4.2129 0,2.1314 -0.2679,3.8999 -0.8008,5.3047 -1.9376,0.9688 -5.4249,1.7448 -10.4629,2.3261 -2.7611,0.2907 -4.6011,0.5567 -5.5215,0.7989 v 5.0136 l 8.7911,-0.291 h 3.0527 c 8.4773,-0.4844 15.6225,-0.7265 21.4355,-0.7265 11.6745,0 21.6521,0.1706 29.9356,0.5097 11.7713,0.4844 19.0138,0.7266 21.7265,0.7266 1.8408,0 4.3357,-0.073 7.4844,-0.2188 l 1.3086,-8.2832 2.6875,-13.7343 0.4356,-2.1797 c 0.097,-0.8235 0.2179,-1.8398 0.3632,-3.0508 -1.0657,-0.048 -1.8636,-0.072 -2.3964,-0.072 -0.9689,0 -2.2054,0.072 -3.7071,0.2168 -2.1798,5.8615 -4.9169,10.4146 -8.2109,13.6602 -2.4705,2.5189 -5.3286,4.1425 -8.5742,4.8691 -4.6989,1.0173 -10.4131,1.5254 -17.1465,1.5254 -10.1728,0 -16.2522,-0.5081 -18.2383,-1.5254 -1.3079,-0.6782 -1.9629,-1.9385 -1.9629,-3.7793 l 0.1445,-15.6933 c -0.1937,-3.8269 -0.289,-8.6242 -0.289,-14.3887 0,-0.3875 0.024,-1.2112 0.072,-2.4707 3.6815,-0.3875 9.1794,-0.5801 16.4941,-0.5801 6.2005,0 9.7851,0.1687 10.7539,0.5078 1.3564,0.436 2.3249,1.091 2.9062,1.9629 0.7751,1.1142 1.6464,3.9227 2.6153,8.4278 0.5328,2.422 0.898,4.0218 1.0918,4.7968 h 5.1582 v -1.5996 c 0,-1.4048 -0.073,-3.5365 -0.2188,-6.3945 -0.1453,-2.9065 -0.2168,-5.0124 -0.2168,-6.3203 0,-0.8235 0.024,-1.9628 0.072,-3.416 0.097,-1.4533 0.1445,-4.7223 0.1445,-9.8086 0,-2.2284 -0.095,-5.4993 -0.289,-9.8106 l -4.2149,-0.072 -0.9453,0.072 c -1.2595,6.0552 -2.107,9.6159 -2.543,10.6817 -0.6781,1.5016 -1.4522,2.5675 -2.3242,3.1972 -0.8719,0.5813 -3.1504,1.0418 -6.832,1.3809 -3.6816,0.3391 -9.8563,0.5078 -18.5273,0.5078 -0.872,0 -1.914,-0.072 -3.125,-0.2168 v -9.1563 l -0.1465,-12.207 c 0,-8.3319 0.073,-13.1034 0.2187,-14.3144 4.6504,-0.1938 9.93,-0.2911 15.8399,-0.2911 5.1832,0 10.0281,0.1945 14.5332,0.5821 2.4705,0.1937 3.9472,0.3148 4.4316,0.3633 1.8892,0.048 3.4394,0.2409 4.6504,0.58 1.9861,2.2768 3.5362,4.5057 4.6504,6.6856 l 2.9082,5.1601 c 0.7266,1.8893 1.3062,3.3183 1.7422,4.2871 1.2595,0.097 2.0831,0.1446 2.4707,0.1446 l 2.9804,-0.1446 c 0.048,-0.5812 0.072,-1.0179 0.072,-1.3085 l -0.1465,-2.9786 v -14.9687 c 0,-1.647 -0.4347,-2.955 -1.3066,-3.9238 -5.7646,-0.7267 -10.1252,-1.0899 -13.0801,-1.0899 l -13.1523,0.1445 c -8.7195,0 -18.4788,0.2184 -29.2813,0.6543 -7.2178,0.2907 -11.6994,0.4356 -13.4433,0.4356 -5.038,0 -9.47,-0.266 -13.2969,-0.7988 -2.0346,-0.2907 -4.4322,-0.509 -7.1934,-0.6543 z m 531.2403,0 -0.3633,5.8125 c 1.211,0.1453 2.2768,0.2425 3.1972,0.291 2.5674,0.097 5.233,0.4363 7.9942,1.0176 0.9204,0.1937 1.6468,0.3386 2.1797,0.4355 0.9688,0.1453 1.6952,0.4847 2.1797,1.0176 0.097,0.7266 0.1445,1.2109 0.1445,1.4531 l 0.6543,9.0098 -0.072,8.2109 0.3633,11.627 -0.072,8.2109 0.2168,27.3926 -0.072,2.2539 c 0.048,1.9861 0.072,3.3894 0.072,4.2129 0,2.1314 -0.2659,3.8999 -0.7988,5.3047 -1.9377,0.9688 -5.425,1.7448 -10.4629,2.3261 -2.7612,0.2907 -4.603,0.5567 -5.5234,0.7989 v 5.0136 l 8.7929,-0.291 h 3.0528 c 8.4773,-0.4844 15.6206,-0.7265 21.4336,-0.7265 11.6744,0 21.654,0.1706 29.9375,0.5097 11.7713,0.4844 19.0138,0.7266 21.7265,0.7266 1.8408,0 4.3357,-0.073 7.4844,-0.2188 l 1.3066,-8.2832 2.6895,-13.7343 0.4355,-2.1797 c 0.097,-0.8235 0.218,-1.8398 0.3633,-3.0508 -1.0657,-0.048 -1.8636,-0.072 -2.3965,-0.072 -0.9688,0 -2.2053,0.072 -3.707,0.2168 -2.1799,5.8615 -4.9169,10.4146 -8.2109,13.6602 -2.4705,2.5189 -5.3287,4.1425 -8.5742,4.8691 -4.6989,1.0173 -10.4151,1.5254 -17.1485,1.5254 -10.1727,0 -16.2522,-0.5081 -18.2383,-1.5254 -1.3079,-0.6782 -1.9609,-1.9385 -1.9609,-3.7793 l 0.1445,-15.6933 c -0.1937,-3.8269 -0.291,-8.6242 -0.291,-14.3887 0,-0.3875 0.026,-1.2112 0.074,-2.4707 3.6816,-0.3875 9.1795,-0.5801 16.4942,-0.5801 6.2005,0 9.7851,0.1687 10.7539,0.5078 1.3563,0.436 2.3249,1.091 2.9062,1.9629 0.7751,1.1142 1.6464,3.9227 2.6153,8.4278 0.5328,2.422 0.896,4.0218 1.0898,4.7968 h 5.1602 v -1.5996 c 0,-1.4048 -0.073,-3.5365 -0.2188,-6.3945 -0.1453,-2.9065 -0.2187,-5.0124 -0.2187,-6.3203 0,-0.8235 0.026,-1.9628 0.074,-3.416 0.097,-1.4533 0.1445,-4.7223 0.1445,-9.8086 0,-2.2284 -0.097,-5.4993 -0.291,-9.8106 l -4.2129,-0.072 -0.9453,0.072 c -1.2595,6.0552 -2.107,9.6159 -2.543,10.6817 -0.6782,1.5016 -1.4542,2.5675 -2.3261,3.1972 -0.872,0.5813 -3.1486,1.0418 -6.8301,1.3809 -3.6816,0.3391 -9.8583,0.5078 -18.5293,0.5078 -0.872,0 -1.912,-0.072 -3.1231,-0.2168 v -9.1563 l -0.1464,-12.207 c 0,-8.3319 0.073,-13.1034 0.2187,-14.3144 4.6504,-0.1938 9.93,-0.2911 15.8398,-0.2911 5.1833,0 10.0282,0.1945 14.5332,0.5821 2.4706,0.1937 3.9473,0.3148 4.4317,0.3633 1.8892,0.048 3.4393,0.2409 4.6504,0.58 1.9861,2.2768 3.5362,4.5057 4.6504,6.6856 l 2.9062,5.1601 c 0.7266,1.8893 1.3082,3.3183 1.7442,4.2871 1.2594,0.097 2.0831,0.1446 2.4707,0.1446 l 2.9785,-0.1446 c 0.048,-0.5812 0.074,-1.0179 0.074,-1.3085 l -0.1465,-2.9786 v -14.9687 c 0,-1.647 -0.4347,-2.955 -1.3066,-3.9238 -5.7646,-0.7267 -10.1252,-1.0899 -13.0801,-1.0899 l -13.1523,0.1445 c -8.7195,0 -18.4808,0.2184 -29.2832,0.6543 -7.2179,0.2907 -11.6976,0.4356 -13.4415,0.4356 -5.0379,0 -9.4699,-0.266 -13.2968,-0.7988 -2.0346,-0.2907 -4.4342,-0.509 -7.1953,-0.6543 z m -1074.3125,5.3047 c 7.6537,0 13.9991,2.082 19.0371,6.248 5.0863,4.166 8.526,10.2216 10.3183,18.166 0.3391,1.5986 0.5813,2.591 0.7266,2.9785 l 0.3633,1.3809 c 0.5328,6.6365 0.7988,11.8922 0.7988,15.7676 0,9.3976 -1.3556,17.0272 -4.0684,22.8886 -2.7127,5.8615 -6.323,10.0276 -10.8281,12.4981 -4.4566,2.4221 -9.2995,3.6348 -14.5312,3.6348 -2.7612,0 -5.5221,-0.5101 -8.2832,-1.5274 -2.7612,-1.0657 -4.8691,-2.2268 -6.3223,-3.4863 -2.8581,-2.4221 -5.0136,-4.8693 -6.4668,-7.3399 -0.872,-1.4532 -2.3506,-5.2561 -4.4336,-11.4082 -0.5813,-1.647 -1.0894,-4.2629 -1.5254,-7.8476 -0.1938,-1.4048 -0.3387,-2.3972 -0.4355,-2.9785 -0.3391,-1.7924 -0.5098,-4.7716 -0.5098,-8.9375 0,-6.8303 0.5815,-12.6199 1.7441,-17.3672 1.1626,-4.7957 3.1256,-9.204 5.8868,-13.2246 1.647,-2.3737 4.0923,-4.5292 7.3378,-6.4668 3.2456,-1.9861 6.977,-2.9785 11.1915,-2.9785 z m 704.0781,1.1621 c 4.6988,0 8.1146,0.3632 10.2461,1.0898 2.9065,0.9688 5.2545,2.3979 7.0469,4.2871 1.2594,1.3079 2.3014,3.3185 3.125,6.0313 0.8719,2.6643 1.3085,5.5224 1.3085,8.5742 0,4.941 -1.7208,8.8888 -5.1601,11.8437 -3.4394,2.955 -9.2767,4.4336 -17.5117,4.4336 -1.0657,0 -2.7608,-0.05 -5.086,-0.1465 v -2.0351 c 0.049,-3.5362 0.1219,-6.4182 0.2188,-8.6465 l -0.072,-7.9199 0.1445,-5.959 -0.072,-9.8086 0.072,-1.3809 c 1.5986,-0.2422 3.512,-0.3632 5.7403,-0.3632 z m -481.3946,18.6738 c 1.4533,3.0034 3.3428,7.3878 5.668,13.1523 2.3252,5.7161 4.2128,10.7297 5.666,15.0411 l -1.8164,0.072 c -2.0345,0 -8.7193,-0.072 -20.0547,-0.2168 z"
         transform="translate(2783.1723,-328.09754)"
         id="text110" />
    </g>
  </g>
</svg>
