<?xml version="1.0" encoding="UTF-8" standalone="no"?>
<svg
   xmlns:dc="http://purl.org/dc/elements/1.1/"
   xmlns:cc="http://creativecommons.org/ns#"
   xmlns:rdf="http://www.w3.org/1999/02/22-rdf-syntax-ns#"
   xmlns:svg="http://www.w3.org/2000/svg"
   xmlns="http://www.w3.org/2000/svg"
   width="55.475971mm"
   height="55.461533mm"
   viewBox="0 0 55.475971 55.461533"
   version="1.1"
   id="svg8"
   class="imagen-svg imagen-svg--viewport">
  <defs
     id="defs2" />
  <metadata
     id="metadata5">
    <rdf:RDF>
      <cc:Work
         rdf:about="">
        <dc:format>image/svg+xml</dc:format>
        <dc:type
           rdf:resource="http://purl.org/dc/dcmitype/StillImage" />
        <dc:title></dc:title>
      </cc:Work>
    </rdf:RDF>
  </metadata>
  <g
     id="layer1"
     transform="translate(158.02697,-68.940763)">
    <path
      class="imagen-svg imagen-svg--path"
       d="m -112.19231,69.780853 -3.39096,3.390947 -4.72776,4.727809 -1.99871,1.998663 -0.0134,0.01785 0.1972,5.658657 -0.62604,0.625993 -1.91229,1.912289 -7.22696,7.227008 c 0,0 -0.004,0.115553 0.002,0.285536 1.4e-4,0.05041 0.0134,0.114661 0.0179,0.17623 0.009,0.119122 0.0178,0.228429 0.0504,0.379674 0.0357,0.171321 0.10262,0.35915 0.17936,0.55095 0.0268,0.06514 0.0357,0.125369 0.0687,0.192291 0.12537,0.258767 0.29446,0.519765 0.53623,0.761489 0.003,0.0029 0.004,0.0045 0.009,0.0089 0.002,0.0023 0.003,0.0032 0.004,0.0045 1.00692,1.006872 2.01344,0.62113 2.01344,0.62113 l 7.27586,-7.275906 1.91229,-1.912245 0.62603,-0.626037 5.3978,0.454805 0.27527,-0.275275 1.99871,-1.998708 4.7229,-4.722901 3.39583,-3.395828 -7.12587,-1.371064 c -0.003,-0.0032 -0.004,-0.0045 -0.0134,-0.01338 l -0.16106,-0.02231 z m 6.11186,13.347011 -4.83863,4.838633 c 3.50058,7.815882 2.07013,17.317003 -4.33814,23.725243 -8.28898,8.28902 -21.76821,8.28737 -30.05719,-0.002 -8.28907,-8.28903 -8.28907,-21.766599 -4e-5,-30.055579 6.40533,-6.405378 15.90035,-7.837118 23.71386,-4.343049 l 4.82561,-4.825564 c -10.82508,-6.048806 -24.34981,-4.178509 -33.12701,4.581074 -10.83333,10.83324 -10.83328,28.397458 0,39.230748 10.83324,10.83324 28.39741,10.83324 39.2307,-5e-5 8.7739,-8.77867 10.6488,-22.317145 4.59084,-33.149805 z m -6.86995,6.869954 -0.33105,0.331044 -5.46953,-0.370305 -0.32926,0.329259 c 2.79598,4.924026 2.11172,11.308614 -2.08022,15.500554 -5.02936,5.02931 -13.22148,5.02771 -18.2508,-0.002 -5.02936,-5.02936 -5.02936,-13.219879 0,-18.249241 4.19247,-4.192473 10.57662,-4.87709 15.50055,-2.080175 l 0.42072,-0.42072 -0.1972,-5.658701 0.0553,-0.05532 c -6.63827,-2.549347 -14.43069,-1.157894 -19.79145,4.202868 -7.26605,7.266002 -7.26609,19.007289 0,26.273379 7.26605,7.26606 19.00729,7.26601 26.27334,-4e-5 5.36335,-5.36335 6.75395,-13.160807 4.19961,-19.801172 z m -12.93613,-2.564471 c -3.80191,-1.819668 -8.476,-1.162132 -11.63363,1.995452 -4.00634,4.006384 -4.0063,10.46066 4e-5,14.467001 4.0063,4.00634 10.46227,4.00799 14.46861,0.002 3.15705,-3.15705 3.81436,-7.831678 1.99545,-11.633636 l -7.33297,7.332969 -0.17935,0.04461 c 0,0 -1.93125,0.484697 -3.42028,-1.004239 -1.48903,-1.489026 -1.29932,-3.568666 -1.29932,-3.568666 l 0.0178,-0.251183 z"
       id="path826" />
  </g>
</svg>
