<?xml version="1.0" encoding="UTF-8" standalone="no"?>
<svg
   xmlns:dc="http://purl.org/dc/elements/1.1/"
   xmlns:cc="http://creativecommons.org/ns#"
   xmlns:rdf="http://www.w3.org/1999/02/22-rdf-syntax-ns#"
   xmlns:svg="http://www.w3.org/2000/svg"
   xmlns="http://www.w3.org/2000/svg"
   id="vision"
   version="1.1"
   viewBox="0 0 557.44921 300">
  <metadata
     id="metadata10">
    <rdf:RDF>
      <cc:Work
         rdf:about="">
        <dc:format>image/svg+xml</dc:format>
        <dc:type
           rdf:resource="http://purl.org/dc/dcmitype/StillImage" />
        <dc:title></dc:title>
      </cc:Work>
    </rdf:RDF>
  </metadata>
  <defs
     id="defs8" />
  <path
     id="eyes"
     d="m 278.7246,0 a 150,150 0 0 1 150,150 150,150 0 0 1 -150,150 c 153.9356,-2e-4 278.7246,-150 278.7246,-150 0,0 -124.7905,-149.9999 -278.7246,-150 z m 0,0 C 124.7904,10e-5 0,150 0,150 c 0,0 124.789,149.9998 278.7246,150 a 150,150 0 0 1 -150,-150 150,150 0 0 1 150,-150 z m 0,84.6093 A 65.389832,65.389832 0 0 0 213.336,150 65.389832,65.389832 0 0 0 278.7246,215.3906 65.389832,65.389832 0 0 0 344.1153,150 65.389832,65.389832 0 0 0 278.7246,84.6093 Z"
     class="about__vision" />
</svg>
